<svg width="50" height="28" viewBox="0 0 50 28" fill="none" xmlns="http://www.w3.org/2000/svg">
<g clip-path="url(#clip0_9581_1101)">
<circle cx="40" cy="14" r="10" fill="#141718"/>
<path d="M36.9281 18V16.6705L40.0346 13.794C40.2988 13.5384 40.5204 13.3082 40.6994 13.1037C40.8812 12.8991 41.019 12.6989 41.1127 12.5028C41.2065 12.304 41.2534 12.0895 41.2534 11.8594C41.2534 11.6037 41.1951 11.3835 41.0787 11.1989C40.9622 11.0114 40.8031 10.8679 40.6014 10.7685C40.3997 10.6662 40.171 10.6151 39.9153 10.6151C39.6483 10.6151 39.4153 10.669 39.2164 10.777C39.0176 10.8849 38.8642 11.0398 38.7562 11.2415C38.6483 11.4432 38.5943 11.6832 38.5943 11.9616H36.8429C36.8429 11.3906 36.9721 10.8949 37.2306 10.4744C37.4892 10.054 37.8514 9.72869 38.3173 9.49858C38.7832 9.26847 39.3201 9.15341 39.9281 9.15341C40.5531 9.15341 41.0971 9.2642 41.5602 9.4858C42.0261 9.70455 42.3883 10.0085 42.6468 10.3977C42.9054 10.7869 43.0346 11.233 43.0346 11.7358C43.0346 12.0653 42.9693 12.3906 42.8386 12.7116C42.7108 13.0327 42.4821 13.3892 42.1525 13.7812C41.823 14.1705 41.3585 14.6378 40.7591 15.1832L39.4849 16.4318V16.4915H43.1497V18H36.9281Z" fill="white"/>
</g>
<path fill-rule="evenodd" clip-rule="evenodd" d="M13.6924 8.58373C13.3055 8.95505 12.6945 8.95505 12.3076 8.58373L11.6152 7.91927C10.8048 7.14154 9.70994 6.66667 8.5 6.66667C6.01472 6.66667 4 8.68139 4 11.1667C4 13.5493 5.28979 15.5167 7.15176 17.1332C9.01532 18.7511 11.2434 19.8241 12.5746 20.3717C12.853 20.4862 13.147 20.4862 13.4254 20.3717C14.7566 19.8241 16.9847 18.7511 18.8482 17.1332C20.7102 15.5167 22 13.5493 22 11.1667C22 8.68139 19.9853 6.66667 17.5 6.66667C16.2901 6.66667 15.1952 7.14154 14.3848 7.91927L13.6924 8.58373ZM13 6.47624C11.8321 5.35548 10.2465 4.66667 8.5 4.66667C4.91015 4.66667 2 7.57682 2 11.1667C2 17.5349 8.97034 21.0517 11.8138 22.2214C12.5796 22.5364 13.4204 22.5364 14.1862 22.2214C17.0297 21.0517 24 17.5349 24 11.1667C24 7.57682 21.0899 4.66667 17.5 4.66667C15.7535 4.66667 14.1679 5.35548 13 6.47624Z" fill="#141718"/>
<defs>
<clipPath id="clip0_9581_1101">
<rect width="20" height="20" fill="white" transform="translate(30 4)"/>
</clipPath>
</defs>
</svg>
